<svg width="512" height="512" viewBox="0 0 512 512" fill="none" xmlns="http://www.w3.org/2000/svg">
  <path d="M256 0C256 0 160 80 160 192C160 252 195 285 195 285C195 285 170 270 170 230C170 200 150 180 150 180C90 230 80 300 80 340C80 435 155 512 256 512C357 512 432 435 432 340C432 260 380 200 380 200C380 200 400 240 400 280C400 320 370 350 370 350C370 350 400 300 400 240C400 150 320 80 256 0Z" fill="white"/>
  <path d="M256 512C320 512 360 460 360 400C360 340 320 300 320 300C320 300 330 330 330 360C330 400 300 430 256 430C212 430 182 400 182 360C182 330 192 300 192 300C192 300 152 340 152 400C152 460 192 512 256 512Z" fill="black" fill-opacity="0.2"/>
</svg>